<svg width="500" height="400" xmlns="http://www.w3.org/2000/svg">
 <title>HEMI</title>

 <g id="Layer_1">
  <title>Layer 1</title>
  <line id="svg_28" y2="300.625" x2="-136.25" y1="300" x1="-136.25" stroke-width="6" stroke="#000" fill="none"/>
  <line id="svg_29" y2="283.75" x2="-198.125" y1="283.75" x1="-198.75" stroke-width="6" stroke="#000" fill="none"/>
  <path id="svg_32" d="m-172.87625,96.97355l0.56913,0l0.17587,-0.54067l0.17587,0.54067l0.56913,0l-0.46044,0.33415l0.17588,0.54067l-0.46044,-0.33416l-0.46044,0.33416l0.17588,-0.54067l-0.46044,-0.33415z" stroke-width="6" stroke="#000" fill="#46673D"/>
  <path id="svg_33" d="m-184.07,121.84855l0.56913,0l0.17587,-0.54067l0.17587,0.54067l0.56913,0l-0.46044,0.33415l0.17588,0.54067l-0.46044,-0.33416l-0.46044,0.33416l0.17588,-0.54067l-0.46044,-0.33415z" stroke-width="6" fill="#ca3c32"/>
  <line stroke="#399746" id="svg_73" y2="255.68998" x2="239.79711" y1="308.3155" x1="78.54711" stroke-width="25" fill="none"/>
  <line stroke="#399746" id="svg_74" y2="317.34747" x2="272.55169" y1="250.61114" x1="226.02553" stroke-width="25" fill="none"/>
  <line stroke="#399746" id="svg_75" y2="241.32703" x2="455.43977" y1="312.62938" x1="258.46702" stroke-width="25" fill="none"/>
  <line stroke="#1a1a1a" id="svg_77" y2="356.25" x2="454.38807" y1="356.25" x1="41.90158" stroke-width="15" fill="none"/>
  <line stroke="#1a1a1a" id="svg_78" y2="39.29127" x2="49.375" y1="359.89856" x1="49.375" fill="none" stroke-width="15"/>
  <line stroke="#4d64ae" id="svg_79" y2="187.0289" x2="245.94567" y1="261.12398" x1="79.07066" stroke-width="25" fill="none"/>
  <line stroke="#4d64ae" id="svg_80" y2="248.22565" x2="284.63169" y1="182.66978" x1="232.48401" stroke-width="25" fill="none"/>
  <line stroke="#4d64ae" id="svg_81" y2="144.7962" x2="449.998" y1="243.23965" x1="271.38556" stroke-width="25" fill="none"/>
  <line stroke-width="25" stroke="#9259a3" id="svg_87" y2="116.59025" x2="243.55785" y1="214.09025" x1="76.68286" fill="none"/>
  <line transform="rotate(-9.34889, 257.352, 143.002)" stroke="#9259a3" id="svg_89" y2="175.45329" x2="280.97039" y1="110.54999" x1="233.73343" stroke-width="25" fill="none"/>
  <line stroke="#9259a3" id="svg_90" y2="49.48438" x2="423.50127" y1="170.06288" x1="270.17874" stroke-width="25" fill="none"/>
  <path stroke="null" id="svg_94" d="m148.28844,20.4661c-26.5745,0 -48.11515,20.66266 -48.11515,46.15128c0,25.48994 21.54063,46.15127 48.11515,46.15127c26.57327,0 48.11517,-20.66132 48.11517,-46.15127c0,-25.48862 -21.5419,-46.15128 -48.11517,-46.15128zm4.39611,72.73254l-8.96138,0l0,-8.24301l8.96138,0l0,8.24301zm0,-17.04448l0,2.72425l-8.96138,0l0,-3.35663c0,-10.12902 12.01739,-11.7364 12.01739,-18.93544c0,-3.28262 -3.05989,-5.7972 -7.06575,-5.7972c-4.15105,0 -7.79184,2.93375 -7.79184,2.93375l-5.10197,-6.08086c0,0 5.02874,-5.03054 13.69571,-5.03054c8.23275,0 15.87684,4.89007 15.87684,13.1343c0.00385,11.53299 -12.66901,12.86302 -12.66901,20.4084l0,0l-0.00001,-0.00001l0.00001,-0.00001l0.00001,-0.00001z" stroke-width="8" fill="#ca3c32"/>
  <path transform="rotate(-90, 49.2659, 39.8997)" id="svg_104" d="m50.34707,39.89987l-10.70926,-19.22409l19.2556,19.22409l-19.2556,19.22409l10.70926,-19.22409z" stroke-width="8" stroke="#1a1a1a" fill="none"/>
  <path id="svg_1" d="m458.32544,356.12982l-10.70926,-19.22409l19.2556,19.22409l-19.2556,19.22409l10.70926,-19.22409z" stroke-width="8" stroke="#1a1a1a" fill="none"/>
  <path fill="none" stroke="#1a1a1a" stroke-width="8" d="m-104.78769,19.63588l0.56913,0l0.17587,-0.54067l0.17587,0.54067l0.56913,0l-0.46044,0.33415l0.17588,0.54067l-0.46044,-0.33416l-0.46044,0.33416l0.17588,-0.54067l-0.46044,-0.33415z" id="svg_2"/>
  <path fill="none" stroke="#1a1a1a" stroke-width="8" d="m-66.68133,102.19964l0.56913,0l0.17587,-0.54067l0.17587,0.54067l0.56913,0l-0.46044,0.33415l0.17588,0.54067l-0.46044,-0.33416l-0.46044,0.33416l0.17588,-0.54067l-0.46044,-0.33415z" id="svg_3"/>
  <path fill="none" stroke="#1a1a1a" stroke-width="8" d="m-35.68161,120.91753l0.56913,0l0.17587,-0.54067l0.17587,0.54067l0.56913,0l-0.46044,0.33415l0.17588,0.54067l-0.46044,-0.33416l-0.46044,0.33416l0.17588,-0.54067l-0.46044,-0.33415z" id="svg_4"/>
  <path fill="none" stroke="#9259a3" stroke-width="20" d="m-133.09181,338.1352l0,0l0,-0.00001l0,0.00001zm0,-0.00001l0.02885,0.02886l-0.02886,0.02885l0.01061,0.01061l0.03947,-0.03947l-0.03947,-0.03947l-0.0106,0.01061l0,0.00001zm0.05113,0.06761l0.07209,0l0,-0.01499l-0.07209,0l0,0.01499zm0.02167,-0.03125l0.05042,0l0,-0.01499l-0.05042,0l0,0.01499zm-0.02167,-0.04625l0,0.015l0.07209,0l0,-0.015l-0.07209,0z" id="svg_6"/>
 </g>
</svg>