<svg width="500" height="400" xmlns="http://www.w3.org/2000/svg">
 <title>HEMI</title>

 <g id="Layer_1">
  <title>Layer 1</title>
  <line fill="none" stroke="#000" stroke-width="6" x1="-136.25" y1="300" x2="-136.25" y2="300.625" id="svg_28"/>
  <line fill="none" stroke="#000" stroke-width="6" x1="-198.75" y1="283.75" x2="-198.125" y2="283.75" id="svg_29"/>
  <path fill="#46673D" stroke="#000" stroke-width="6" d="m-172.87625,96.97355l0.56913,0l0.17587,-0.54067l0.17587,0.54067l0.56913,0l-0.46044,0.33415l0.17588,0.54067l-0.46044,-0.33416l-0.46044,0.33416l0.17588,-0.54067l-0.46044,-0.33415z" id="svg_32"/>
  <path fill="#ca3c32" stroke-width="6" d="m-184.07,121.84855l0.56913,0l0.17587,-0.54067l0.17587,0.54067l0.56913,0l-0.46044,0.33415l0.17588,0.54067l-0.46044,-0.33416l-0.46044,0.33416l0.17588,-0.54067l-0.46044,-0.33415z" id="svg_33"/>
  <line fill="none" stroke-width="10" x1="77.5" y1="293.25052" x2="238.75" y2="240.625" id="svg_73" stroke="#399746"/>
  <line fill="none" stroke-width="10" x1="233.75" y1="238.125" x2="271.25" y2="293.75" id="svg_74" stroke="#399746"/>
  <line fill="none" stroke-width="10" x1="265.62499" y1="292.5" x2="403.75" y2="242.5" id="svg_75" stroke="#399746"/>
  <line fill="none" stroke-width="8" x1="45.62496" y1="356.25" x2="454.38807" y2="356.25" id="svg_77" stroke="#1a1a1a"/>
  <line fill="none" stroke-width="8" x1="49.375" y1="359.375" x2="49.375" y2="58.66282" id="svg_78" stroke="#1a1a1a"/>
  <line fill="none" stroke-width="10" x1="77.49999" y1="271.59508" x2="244.375" y2="197.5" id="svg_79" stroke="#4d64ae"/>
  <line fill="none" stroke-width="10" x1="238.125" y1="196.25" x2="276.875" y2="252.5" id="svg_80" stroke="#4d64ae"/>
  <line fill="none" stroke-width="10" x1="270.84052" y1="251.65948" x2="403.12501" y2="178.75" id="svg_81" stroke="#4d64ae"/>
  <line fill="#9259a3" stroke="null" stroke-width="10" x1="78.75" y1="250.625" x2="231.25" y2="169.375" id="svg_83"/>
  <line fill="none" stroke-width="10" x1="75.62501" y1="246.25" x2="242.5" y2="148.75" id="svg_87" stroke="#9259a3"/>
  <line fill="none" stroke-width="10" x1="236.25" y1="148.125" x2="277.5" y2="201.25" id="svg_89" stroke="#9259a3"/>
  <line fill="none" stroke-width="10" x1="271.21511" y1="201.16479" x2="405.03486" y2="95.53978" id="svg_90" stroke="#9259a3"/>
  <path fill="#ca3c32" stroke-width="4" d="m440.89268,138.15726c-15.53373,0 -28.125,12.07805 -28.125,26.97705c0,14.89977 12.59126,26.97704 28.125,26.97704c15.53301,0 28.12501,-12.07727 28.12501,-26.97704c0,-14.899 -12.592,-26.97705 -28.12501,-26.97705zm2.56968,42.51473l-5.23824,0l0,-4.81833l5.23824,0l0,4.81833zm0,-9.9631l0,1.59242l-5.23824,0l0,-1.96207c0,-5.92077 7.02459,-6.86034 7.02459,-11.06843c0,-1.91881 -1.78861,-3.38867 -4.13018,-3.38867c-2.42643,0 -4.5546,1.71488 -4.5546,1.71488l-2.98228,-3.55448c0,0 2.93948,-2.94053 8.00563,-2.94053c4.81233,0 9.28057,2.85842 9.28057,7.67746c0.00225,6.74144 -7.40548,7.51889 -7.40548,11.92943l0,0l-0.00001,-0.00001z" id="svg_94" stroke="null"/>
  <path fill="none" stroke="#1a1a1a" stroke-width="8" d="m456.70998,355.94604l-8.34245,-14.97545l15,14.97545l-15,14.97544l8.34245,-14.97544z" id="svg_102"/>
  <path fill="none" stroke="#1a1a1a" stroke-width="8" d="m456.70998,355.94604l-8.34245,-14.97545l15,14.97545l-15,14.97545l8.34245,-14.97545z" id="svg_103"/>
  <path fill="none" stroke="#1a1a1a" stroke-width="8" d="m49.83498,55.32104l-8.34245,-14.97545l15,14.97545l-15,14.97545l8.34245,-14.97545z" id="svg_104" transform="rotate(-90 48.9925 55.321)"/>
 </g>
</svg>